PathFileType	4	(X/Y/Z)	 s02c0103.trc
DataRate	CameraRate	NumFrames	NumMarkers	Units	OrigDataRate	OrigDataStartFrame	OrigNumFrames
200	200	4	50	mm	200	1501	2000
Frame#	Time	racr			lacr			c7			jug			rlel			rdr			llel			ldr			s2			lic			ric			lasi			rasi			rpsi			lpsi			rgt			lgt			rth1			rth2			rth3			rth4			rlfc			rmfc			rsh1			rsh2			rsh3			rsh4			rlmal			rmmal			rtoe			rmt5			rmt1			lth1			lth2			lth4			lth3			llfc			lmfc			lsh1			lsh2			lsh3			lsh4			llmal			lmmal			lcal			ltoe			lmt5			SBIKE			LBIKE			RBIKE			
		X1	Y1	Z1	X2	Y2	Z2	X3	Y3	Z3	X4	Y4	Z4	X5	Y5	Z5	X6	Y6	Z6	X7	Y7	Z7	X8	Y8	Z8	X9	Y9	Z9	X10	Y10	Z10	X11	Y11	Z11	X12	Y12	Z12	X13	Y13	Z13	X14	Y14	Z14	X15	Y15	Z15	X16	Y16	Z16	X17	Y17	Z17	X18	Y18	Z18	X19	Y19	Z19	X20	Y20	Z20	X21	Y21	Z21	X22	Y22	Z22	X23	Y23	Z23	X24	Y24	Z24	X25	Y25	Z25	X26	Y26	Z26	X27	Y27	Z27	X28	Y28	Z28	X29	Y29	Z29	X30	Y30	Z30	X31	Y31	Z31	X32	Y32	Z32	X33	Y33	Z33	X34	Y34	Z34	X35	Y35	Z35	X36	Y36	Z36	X37	Y37	Z37	X38	Y38	Z38	X39	Y39	Z39	X40	Y40	Z40	X41	Y41	Z41	X42	Y42	Z42	X43	Y43	Z43	X44	Y44	Z44	X45	Y45	Z45	X46	Y46	Z46	X47	Y47	Z47	X48	Y48	Z48	X49	Y49	Z49	X50	Y50	Z50	
1501	7.5050	538.981895	1267.040645	-180.605154	484.154606	1295.727240	-508.281534	500.818916	1325.699685	-344.960454	425.582919	1206.574885	-338.727351	582.888074	1017.036721	-67.413097	715.327057	842.927016	-118.083984	533.386304	1020.601350	-569.894291	706.575399	862.001437	-503.929202	-3.612465	1123.878685	-278.327212	100.385042	1141.819083	-438.999029	138.135417	1106.919397	-152.036000	151.980517	1117.124394	-416.366187	186.312055	1083.621179	-185.609405	16.970077	1147.450724	-236.092589	13.305259	1166.181756	-318.732902	100.925514	1014.798562	-127.045767	82.439424	1067.480568	-480.908670	173.558587	941.215386	-116.834919	233.035088	876.116684	-119.046398	255.558148	795.569621	-99.325226	260.004291	889.040424	-142.165222	295.962729	664.588882	-138.544139	288.534390	647.069876	-244.741885	277.227291	559.511752	-118.482979	281.989537	471.963298	-134.004125	244.907191	393.668035	-131.390478	297.172610	471.558060	-170.331893	212.367154	280.570705	-139.332878	225.703834	298.379711	-217.617105	380.542094	125.368251	-186.965329	277.810340	162.474105	-126.261777	307.306197	165.710577	-232.086463	220.847509	1046.071674	-492.463493	304.977300	1043.946966	-484.029242	313.196087	1073.569477	-463.912926	381.441206	998.062065	-488.089146	477.241552	964.509506	-468.937819	484.924900	930.858752	-357.537003	442.265726	874.261215	-483.613941	413.795462	793.262451	-472.461647	346.322257	733.497200	-476.780371	434.518472	781.195555	-438.584682	271.039924	644.048310	-466.855433	292.865154	634.516531	-390.114567	195.717330	621.457931	-428.137692	442.867752	475.787174	-435.431672	339.686932	506.976243	-495.280531	-126.215369	872.724022	-306.151681	37.212379	87.641093	-513.927440	33.922850	83.157742	-113.949110	
1502	7.5100	538.920623	1267.670773	-182.409983	482.394800	1295.687975	-509.702155	499.880032	1325.933408	-346.629219	424.793318	1206.752028	-339.762333	583.353731	1017.907282	-68.247310	715.329368	842.990289	-118.204942	531.920939	1020.429759	-570.369190	706.096889	862.372097	-504.386019	-4.473590	1124.793374	-277.997735	99.716710	1142.491288	-438.732399	137.302195	1108.453910	-151.836340	151.074414	1118.152994	-415.541405	185.462110	1084.884064	-185.168698	15.978719	1149.188193	-235.824652	12.253551	1168.042658	-318.281983	100.344352	1015.943469	-126.598835	81.549040	1068.589713	-480.043172	173.122437	942.556989	-116.925128	233.237077	877.957635	-118.840281	256.567793	797.552053	-99.030397	260.121494	891.083595	-141.958921	297.925871	666.573109	-138.597200	290.655998	649.317466	-244.680144	277.444763	562.018228	-118.508014	280.073693	474.043824	-134.437361	241.262509	396.825716	-131.627282	295.166004	473.476895	-170.725451	205.875746	284.642828	-139.402806	219.474696	302.178379	-217.761192	370.084893	125.366287	-186.743629	268.307683	164.810517	-126.471772	297.752155	167.118206	-232.356826	219.659157	1046.098289	-492.124007	304.011984	1043.606205	-484.304976	312.481007	1073.500923	-464.751112	380.149256	997.106247	-487.803207	475.744383	964.371564	-468.685498	484.630064	931.184268	-357.069608	442.359039	873.903635	-483.302703	415.786386	792.106413	-472.467813	349.507300	731.031179	-476.764274	436.968626	780.331720	-439.049618	276.274987	639.192519	-466.722359	298.445713	630.378740	-390.200048	200.998193	614.567218	-428.386249	452.777665	477.174038	-435.772818	348.632895	504.838377	-495.536710	-126.327167	872.706144	-306.340432	37.221361	87.601955	-513.950393	33.909884	83.162064	-113.935981	
1503	7.5150	538.870699	1268.027283	-184.113602	480.774933	1295.337009	-510.997874	498.965802	1325.900307	-348.123219	424.161124	1206.577517	-340.703794	583.710179	1018.547784	-68.962966	715.351754	843.056439	-118.272932	530.678254	1020.086828	-570.928897	705.548050	862.675455	-504.913416	-5.209375	1125.592852	-278.020005	99.126385	1143.006829	-438.575478	136.370468	1109.680497	-151.572430	150.265072	1118.963994	-414.967091	184.585471	1086.123262	-184.852421	15.039098	1150.791899	-235.772456	10.612381	1169.902390	-317.164370	99.714305	1017.174724	-126.163497	80.719034	1069.515338	-479.397303	172.800963	943.833499	-117.025818	233.734740	880.013870	-118.610620	257.872842	799.886646	-98.898047	260.421697	893.449206	-141.741562	300.105928	668.995785	-138.469168	293.262444	652.107410	-244.666037	278.289178	564.523962	-118.970226	277.755198	476.688784	-135.094603	237.962398	400.389725	-131.903141	293.518614	475.697284	-171.355481	199.492275	289.185229	-139.523474	213.579022	306.311894	-218.033752	359.843033	125.829240	-186.708872	259.082745	167.737983	-126.717034	288.464986	169.098321	-232.402045	218.600375	1045.764408	-492.153931	303.101544	1042.487847	-484.548186	311.850727	1072.601932	-465.511851	378.690396	995.227614	-487.579604	476.326446	961.679392	-469.028940	484.104482	930.191816	-356.822831	442.324784	872.103995	-483.579603	417.423191	789.648137	-472.871271	352.305483	727.174278	-476.854212	439.061455	778.083587	-439.540162	281.186344	633.144155	-466.365080	303.550179	624.748943	-391.952415	206.460166	606.260768	-429.426065	462.403521	478.286361	-435.973674	357.263747	501.986775	-495.952818	-127.934247	872.298395	-303.280353	37.220468	87.521947	-513.998817	33.934263	83.289829	-114.028866	
1504	7.5200	538.809536	1267.975535	-185.703300	479.338494	1294.702351	-512.058807	498.084839	1325.620413	-349.475245	423.605155	1206.122479	-341.659645	583.855226	1018.892322	-69.602882	715.325037	843.088379	-118.354096	529.568706	1019.634095	-571.593952	705.048894	862.927993	-505.249455	-5.788962	1126.179706	-278.423022	98.614682	1143.366785	-438.525965	135.364824	1110.994008	-151.377483	149.552301	1119.562864	-414.626469	183.610943	1087.204267	-184.723426	14.037062	1152.246700	-235.888254	10.803269	1170.957740	-318.421296	99.045288	1018.303669	-125.764863	80.088665	1070.283451	-478.770104	172.590927	945.395719	-117.127795	234.447793	882.330095	-118.455314	259.543963	802.445376	-98.862653	261.042958	896.091506	-141.412850	302.952852	671.831546	-138.421678	296.147230	655.124221	-244.983214	279.418605	567.521345	-119.330579	276.495375	479.658965	-135.713041	234.960446	404.513084	-132.189455	292.184066	478.312681	-171.777699	193.300126	294.160094	-139.807763	208.052695	310.940551	-218.406061	349.645968	126.924291	-186.762604	249.915916	171.323647	-127.034901	279.491134	171.603192	-232.447933	217.633361	1044.985517	-492.235728	302.119500	1040.682987	-484.793695	311.275997	1070.885856	-466.184006	377.122902	992.436845	-487.432839	474.654447	958.758788	-469.028227	483.286514	927.727705	-356.869567	441.915315	868.671301	-483.666247	418.758334	785.695853	-473.427544	354.813946	722.101333	-477.121486	440.776396	774.434442	-439.999177	285.984827	626.484004	-467.039891	308.430981	618.607235	-391.709061	210.740269	596.773515	-429.964417	471.856499	479.114024	-436.421408	365.659581	498.220337	-496.737566	-127.990621	872.247474	-303.370456	37.211287	87.457471	-514.023433	33.907449	83.246781	-113.999844	
